<svg width="64" height="64" viewBox="0 0 64 64" fill="none" xmlns="http://www.w3.org/2000/svg" role="img" aria-label="Arc USDC Rebalancer logo">
  <defs>
    <linearGradient id="bg" x1="8" y1="8" x2="56" y2="56" gradientUnits="userSpaceOnUse">
      <stop stop-color="#0F172A"/>
      <stop offset="1" stop-color="#052E2B"/>
    </linearGradient>
    <linearGradient id="accent" x1="14" y1="14" x2="50" y2="50" gradientUnits="userSpaceOnUse">
      <stop stop-color="#34D399"/>
      <stop offset="1" stop-color="#14B8A6"/>
    </linearGradient>
  </defs>
  <rect x="2" y="2" width="60" height="60" rx="18" fill="url(#bg)"/>
  <rect x="2" y="2" width="60" height="60" rx="18" stroke="url(#accent)" stroke-opacity="0.35" stroke-width="1.25"/>
  <rect x="11" y="11" width="42" height="42" rx="14" fill="#FFFFFF" fill-opacity="0.03" stroke="#FFFFFF" stroke-opacity="0.08"/>
  <circle cx="19" cy="19" r="7" fill="#34D399" fill-opacity="0.14"/>
  <circle cx="45" cy="45" r="8" fill="#14B8A6" fill-opacity="0.16"/>
  <path d="M18 41L26.5 23H31L39 41H34.7L32.9 37H24.5L22.7 41H18ZM25.7 33.6H31.7L28.7 27.1L25.7 33.6Z" fill="#F8FAFC"/>
  <path d="M39.8 23.5H43.8V33.9C43.8 37.4 42.2 39.1 39 39.1C35.8 39.1 34.2 37.4 34.2 33.9V23.5H38.2V33.2C38.2 34.7 38.5 35.7 39 36.3C39.4 35.7 39.8 34.7 39.8 33.2V23.5Z" fill="#F8FAFC"/>
  <path d="M18.7 47.2H45.3" stroke="url(#accent)" stroke-opacity="0.55" stroke-width="1.4" stroke-linecap="round"/>
</svg>
